<svg xmlns="http://www.w3.org/2000/svg" xmlns:xlink="http://www.w3.org/1999/xlink" viewBox="0 0 200.07 187.72"><defs><style>.cls-1{fill:none;}.cls-2{clip-path:url(#clip-path);}.cls-3{clip-path:url(#clip-path-2);}.cls-4{fill:#c86e29;}</style><clipPath id="clip-path" transform="translate(0 0)"><rect class="cls-1" width="200.07" height="187.72"/></clipPath><clipPath id="clip-path-2" transform="translate(0 0)"><rect class="cls-1" width="200.07" height="187.72"/></clipPath></defs><title>art</title><g id="Layer_2" data-name="Layer 2"><g id="Layer_1-2" data-name="Layer 1"><g id="Artwork_13" data-name="Artwork 13"><g class="cls-2"><g class="cls-3"><path class="cls-4" d="M140.85,20.28a82.89,82.89,0,0,0-117,8.36c-30.13,34.75-33.76,70.71.76,100.62,24.86,21.55,54.94-10.59,77.92,8s30.6,18.52,46.65,0a83.11,83.11,0,0,0-8.35-117M31.31,39.53a19.41,19.41,0,0,1,5-3.69,19.29,19.29,0,0,1,2.94-5.44A18.8,18.8,0,1,1,67.64,55l-.43.51a13.66,13.66,0,0,1-20.92,17l.21-.25a20.51,20.51,0,0,1-13.2-4.77,19.84,19.84,0,0,1-2-27.94m14.8,77.25a9,9,0,0,1-12.79.91c-1.27-1.1-1.63-2.73-2-4.37a7.62,7.62,0,0,1-4.88-1.56A9,9,0,0,1,25.56,99c.65-.76,1.38-.58,2.3-1.11.19-.74.12-1.67.56-2.19A9.2,9.2,0,0,1,41,94.53c3-.93,6.13-.91,8.66,1.29a9.25,9.25,0,0,1,.91,12.79c-.66.76-1.86.61-2.3,1.11a9.66,9.66,0,0,1-2.11,7.06M58.84,81.6a5.37,5.37,0,1,1,.54,7.57,5.29,5.29,0,0,1-.54-7.57m-4.49,33.87a2.65,2.65,0,0,1-.27-3.79,2.89,2.89,0,0,1,3.79-.27,2.65,2.65,0,0,1,.27,3.79,2.47,2.47,0,0,1-3.79.27m6-5.9a1.23,1.23,0,0,1-.13-1.89,1.43,1.43,0,0,1,1.89-.14,1.54,1.54,0,0,1,.39,2.11c-.66.76-1.39.58-2.15-.09M75,80.91a2.64,2.64,0,0,1-.26-3.78,2.88,2.88,0,0,1,3.78-.27,2.65,2.65,0,0,1,.27,3.79,2.47,2.47,0,0,1-3.79.27m25.87-14.45a5.38,5.38,0,1,1,7-8.12,5.37,5.37,0,0,1-7,8.12m16,6.71a2.65,2.65,0,0,1-.28-3.79,2.47,2.47,0,0,1,3.79-.26,2.65,2.65,0,0,1,.28,3.79,2.9,2.9,0,0,1-3.79.27m14.51-16.74a8.32,8.32,0,0,1-11.84.84,8.46,8.46,0,0,1-2.23-4.6,18.81,18.81,0,0,1-7.15-3.54,18.16,18.16,0,0,1-4.24-5.89c-1.44-.37-2.87-.27-4.13-1.36a11.18,11.18,0,0,1-1.12-15.64c2.64-3,6.9-3.34,10.54-2.42C117.44,19.09,126,19,131.84,24a16.63,16.63,0,0,1,1.69,23.68c-.21.25-.92.53-1.14.79.68,2.81.88,5.65-1.1,7.94m5.84,78.36a13.76,13.76,0,1,1-1.38-19.41,13.9,13.9,0,0,1,1.38,19.41" transform="translate(0 0)"/><path class="cls-4" d="M35.21,161c3-3.2,8-4.22,12.72-2.49a12.47,12.47,0,0,1,7.69,16.06,16.63,16.63,0,0,1-2,3.55l38.28-36C79.81,137,66.16,142,53.14,144.32Z" transform="translate(0 0)"/><path class="cls-4" d="M173.19,59.86l26.88-41.22L197.56,16,163.75,34.36a78.38,78.38,0,0,1,9.44,25.51" transform="translate(0 0)"/><path class="cls-4" d="M44.85,161.48a12.6,12.6,0,0,0-13.69,3.38l-.06-.07c-.21.19-.29.54-.49.76-1.35,1.57-7.53,8-16.17,3.94A2.53,2.53,0,0,0,11.2,171c-.32.87.45,1.48,1,2.16l-.45.74S27.17,195,44.81,185.06A12.28,12.28,0,0,0,48,183.25c.15-.12.29-.13.45-.26l0,0h0a12.29,12.29,0,0,0,4-5.24,12.65,12.65,0,0,0-7.51-16.22" transform="translate(0 0)"/></g></g></g></g></g></svg>