<svg xmlns="http://www.w3.org/2000/svg" xmlns:xlink="http://www.w3.org/1999/xlink" viewBox="0 0 244.49 213.19"><defs><style>.cls-1,.cls-6{fill:none;}.cls-2{clip-path:url(#clip-path);}.cls-3{clip-path:url(#clip-path-2);}.cls-4{fill:#c86e29;}.cls-5{fill:#fff;}.cls-6{stroke:#c86e29;stroke-linecap:round;stroke-miterlimit:10;stroke-width:2px;}</style><clipPath id="clip-path" transform="translate(-1.22 -0.03)"><rect class="cls-1" width="246.92" height="213.22"/></clipPath><clipPath id="clip-path-2" transform="translate(-1.22 -0.03)"><rect class="cls-1" width="246.92" height="213.22"/></clipPath></defs><title>big-flurish</title><g id="Layer_2" data-name="Layer 2"><g id="Layer_1-2" data-name="Layer 1"><g id="Artwork_9" data-name="Artwork 9"><g class="cls-2"><g class="cls-3"><path class="cls-4" d="M155.22,129c-1.92,0-3.47-.93-3.47-2.08V66.27c0-1.15,1.55-2.07,3.47-2.07s3.47.93,3.47,2.07v60.67c0,1.15-1.56,2.08-3.47,2.08" transform="translate(-1.22 -0.03)"/><path class="cls-4" d="M124.66,180.44a3.47,3.47,0,0,1-3.47-3.47V47.38a3.47,3.47,0,1,1,6.94,0V177a3.47,3.47,0,0,1-3.47,3.47" transform="translate(-1.22 -0.03)"/><path class="cls-4" d="M92.45,123.26A3.47,3.47,0,0,1,89,119.79v-68a3.47,3.47,0,1,1,6.94,0v68a3.47,3.47,0,0,1-3.47,3.47" transform="translate(-1.22 -0.03)"/><path class="cls-4" d="M92.45,153.13A3.47,3.47,0,0,1,89,149.66V135.12a3.47,3.47,0,1,1,6.94,0v14.54a3.47,3.47,0,0,1-3.47,3.47" transform="translate(-1.22 -0.03)"/><path class="cls-4" d="M59.67,111.4a3.47,3.47,0,0,1-3.47-3.47v-48a3.47,3.47,0,1,1,6.94,0v48a3.47,3.47,0,0,1-3.47,3.47" transform="translate(-1.22 -0.03)"/><path class="cls-5" d="M229.1,28.67C224.39,18.9,212.64,17.52,203,17.22c-8.33-.26-16.66-.44-25-.6,5.91-2.48,10.78-5.74,13.36-10a4.34,4.34,0,1,0-7.43-4.49c-5.83,9.65-36.33,13.59-54.19,13.81a4.32,4.32,0,0,0-1,.14c-16.23-.1-32.46-.17-48.68-.34-20.61-.22-41.23-.41-61.85-.83a3.91,3.91,0,0,0-3,1.16l-.11.1-.05.05a3.91,3.91,0,0,0-1.18,3c.82,39.47,1.08,78.94,1.58,118.41.22,17.69-.65,35.88,1,53.51.82,8.59,3.82,17.91,12.72,21.09,8.6,3.07,18.21-1.56,22.88-9,5.44-8.64,6.3-24.07-.6-32.25C46,164.57,35.12,165.58,33,174.42c-1.17,4.88,5.46,7.24,7.77,3.73a3.26,3.26,0,0,1,4-1.33q1.77.81,1.93,3.7l.65,3.67c0,.1,0,.2,0,.3A23.57,23.57,0,0,1,46,195.83c-3.16,7.84-13.8,12.84-18.79,3.43-3.67-6.92-2.48-16.78-2.61-24.48q-.36-21.23-.59-42.46c4,7.8,9.8,13.86,18.13,15.44a4.29,4.29,0,0,0,.82.08,4.34,4.34,0,0,0,.81-8.6C26.83,136,23.48,98.56,23.62,84.4a4.23,4.23,0,0,0-.14-1.06c-.21-18.71-.45-37.42-.8-56.13a3.4,3.4,0,0,1,3.47-3.47c35,.65,70,.86,105,1.23q28.39.3,56.78.68c7.58.12,15.63-.45,23.1.87,8.89,1.57,15.33,9.77,7.51,17.55-3.62,3.6-9,4.56-13.91,4.48a28.28,28.28,0,0,1-6.52-.85q-2.9-.15-3.7-1.93a3.25,3.25,0,0,1,1.33-4c3.5-2.31,1.15-8.94-3.73-7.77-8.43,2-10,12.6-3.83,18.15,7.79,7,22.87,6.47,31.56,1.66S233.58,38,229.1,28.67" transform="translate(-1.22 -0.03)"/><path class="cls-5" d="M29,29.9h23.2a.39.39,0,0,1,.23.7C49,33.11,37.48,42,29.67,52.28A.39.39,0,0,1,29,52s.91-13.91,0-22.15" transform="translate(-1.22 -0.03)"/><path class="cls-6" d="M244,48.34s7.76-41.77-29.92-39" transform="translate(-1.22 -0.03)"/><path class="cls-6" d="M24.91,3.05S9.3,0,5.63,5.47C.13,13.6,4.32,48.34,4.32,48.34" transform="translate(-1.22 -0.03)"/><line class="cls-6" x1="2.39" y1="176.62" x2="1" y2="129.53"/></g></g></g></g></g></svg>