<svg xmlns="http://www.w3.org/2000/svg" xmlns:xlink="http://www.w3.org/1999/xlink" viewBox="0 0 122.46 105.9"><defs><style>.cls-1,.cls-5{fill:none;}.cls-2{clip-path:url(#clip-path);}.cls-3{fill:#c86e29;}.cls-4{fill:#fff;}.cls-5{stroke:#c86e29;stroke-linecap:round;stroke-miterlimit:10;stroke-width:2px;}</style><clipPath id="clip-path" transform="translate(-0.1 0)"><rect class="cls-1" width="122.66" height="105.92"/></clipPath></defs><title>Flurish</title><g id="Layer_2" data-name="Layer 2"><g id="Layer_1-2" data-name="Layer 1"><g id="Artwork_9" data-name="Artwork 9"><g class="cls-2"><g class="cls-2"><path class="cls-3" d="M45.55,41.83c1,0,1.72.46,1.72,1V73c0,.57-.77,1-1.72,1s-1.72-.46-1.72-1V42.86c0-.57.77-1,1.72-1" transform="translate(-0.1 0)"/><path class="cls-3" d="M60.73,16.28A1.72,1.72,0,0,1,62.46,18V82.38a1.72,1.72,0,1,1-3.45,0V18a1.72,1.72,0,0,1,1.72-1.72" transform="translate(-0.1 0)"/><path class="cls-3" d="M76.73,44.69a1.72,1.72,0,0,1,1.72,1.72V80.18a1.72,1.72,0,1,1-3.45,0V46.41a1.72,1.72,0,0,1,1.72-1.72" transform="translate(-0.1 0)"/><path class="cls-3" d="M76.73,29.85a1.72,1.72,0,0,1,1.72,1.72v7.22a1.72,1.72,0,1,1-3.45,0V31.57a1.72,1.72,0,0,1,1.72-1.72" transform="translate(-0.1 0)"/><path class="cls-3" d="M93,50.58a1.72,1.72,0,0,1,1.72,1.72V76.15a1.72,1.72,0,1,1-3.45,0V52.3A1.72,1.72,0,0,1,93,50.58" transform="translate(-0.1 0)"/><path class="cls-4" d="M8.85,91.68c2.34,4.85,8.17,5.54,13,5.69,4.14.13,8.28.22,12.42.3-2.94,1.23-5.36,2.85-6.64,5a2.16,2.16,0,1,0,3.69,2.23c2.9-4.79,18-6.75,26.92-6.86a2.15,2.15,0,0,0,.5-.07c8.06,0,16.12.08,24.18.17,10.24.11,20.48.2,30.72.41a1.94,1.94,0,0,0,1.49-.58l.05,0,0,0a1.94,1.94,0,0,0,.59-1.5c-.41-19.6-.54-39.21-.79-58.82-.11-8.79.32-17.82-.52-26.58-.41-4.27-1.9-8.9-6.32-10.48-4.27-1.53-9,.78-11.37,4.46-2.7,4.29-3.13,12,.3,16,2.71,3.21,8.13,2.71,9.19-1.68a2.2,2.2,0,0,0-3.86-1.85,1.62,1.62,0,0,1-2,.66,1.93,1.93,0,0,1-1-1.84l-.32-1.82s0-.1,0-.15a11.71,11.71,0,0,1,.65-5.64c1.57-3.89,6.85-6.38,9.33-1.71,1.82,3.44,1.23,8.34,1.29,12.16q.18,10.54.29,21.09c-2-3.87-4.87-6.88-9-7.67a2.13,2.13,0,0,0-.41,0,2.16,2.16,0,0,0-.4,4.27C109.33,38.35,111,57,110.93,64a2.1,2.1,0,0,0,.07.53c.11,9.3.22,18.59.4,27.88a1.69,1.69,0,0,1-1.72,1.72c-17.38-.32-34.76-.42-52.14-.61q-14.1-.15-28.2-.34c-3.76-.06-7.76.22-11.48-.43C13.44,92,10.24,87.9,14.12,84c1.8-1.79,4.48-2.26,6.91-2.23a14,14,0,0,1,3.24.42,1.93,1.93,0,0,1,1.84,1,1.62,1.62,0,0,1-.66,2A2.2,2.2,0,0,0,27.3,89c4.19-1,5-6.26,1.9-9-3.87-3.46-11.36-3.21-15.68-.82S6.62,87,8.85,91.68" transform="translate(-0.1 0)"/><path class="cls-4" d="M108.27,91.06H96.74a.19.19,0,0,1-.12-.35,60.76,60.76,0,0,0,11.29-10.77.19.19,0,0,1,.35.12,82.71,82.71,0,0,0,0,11" transform="translate(-0.1 0)"/><path class="cls-5" d="M1.43,81.9s-3.85,20.75,14.86,19.37" transform="translate(-0.1 0)"/><path class="cls-5" d="M110.28,104.4s7.76,1.5,9.58-1.2c2.73-4,.65-21.3.65-21.3" transform="translate(-0.1 0)"/><line class="cls-5" x1="120.77" y1="18.16" x2="121.46" y2="41.56"/></g></g></g></g></g></svg>