<svg xmlns="http://www.w3.org/2000/svg" viewBox="0 0 722.1 613.01"><defs><style>.cls-1{fill:#333;}.cls-2{fill:#fff;}.cls-3{fill:#29b6c5;}.cls-4{fill:#8d3320;}</style></defs><title>Graphics_3</title><g id="Layer_2" data-name="Layer 2"><g id="Layer_1-2" data-name="Layer 1"><path class="cls-1" d="M154.46,285.48V348a91.37,91.37,0,0,0,28.71-62.49Z"/><path class="cls-1" d="M131.78,285.48H83.09V262.79H181.4a91.61,91.61,0,1,0-49.62,100.87Z"/><path class="cls-1" d="M320.78,115.47a49.83,49.83,0,1,0,49.83,49.83A49.83,49.83,0,0,0,320.78,115.47Zm18.93,51.81v36.88a43.23,43.23,0,1,1,23.41-47.58H316.75v10.7Zm10.7,29.48V167.28H364A43.1,43.1,0,0,1,350.41,196.76Z"/><path class="cls-2" d="M254.51,117.46H263q0-.42,0-.85a21,21,0,1,0-8.54,16.92ZM250,133a18.24,18.24,0,1,1,9.88-20.08H240.32v4.52H250Z"/><path class="cls-2" d="M311,0A38.5,38.5,0,1,0,325.6,74.13v9.73h8.25V40.06h0v0h10.46v0h5.11q0-.77,0-1.55A38.5,38.5,0,0,0,311,0Zm22.9,31.77h-26V40h17.75v28.5a33.4,33.4,0,1,1,18.1-36.77Z"/><path class="cls-2" d="M304.85,611.85A36.48,36.48,0,0,0,314,608.1V544.51a36.48,36.48,0,0,0-9.18-3.75Z"/><path class="cls-2" d="M323.2,552v48.55a36.7,36.7,0,0,0,0-48.55Z"/><path class="cls-2" d="M277.32,544.51a36.87,36.87,0,0,0-9.18,7.52v48.55a36.87,36.87,0,0,0,9.18,7.52Z"/><path class="cls-2" d="M286.49,611.85a36.77,36.77,0,0,0,9.18,1.16V539.6a36.77,36.77,0,0,0-9.18,1.16Z"/><path class="cls-2" d="M612,431.27a84.88,84.88,0,1,0,84.88,84.88A84.88,84.88,0,0,0,612,431.27Zm-.12,104.46V514.51h63.75v21.22Z"/><path class="cls-1" d="M653.28,133.82a68.82,68.82,0,1,0,68.82,68.82A68.82,68.82,0,0,0,653.28,133.82Zm.1,114.86a47.28,47.28,0,1,1,47.28-47.37H653.18v17.2h44.28A47.3,47.3,0,0,1,653.38,248.68Z"/><path class="cls-2" d="M509.49,100.61a51,51,0,1,0,51,51A51,51,0,0,0,509.49,100.61Zm0,90.66a39.65,39.65,0,1,1,39.65-39.65A39.65,39.65,0,0,1,509.49,191.27Z"/><rect class="cls-2" x="506.3" y="151.15" width="34.76" height="11.57" transform="translate(1047.36 313.87) rotate(180)"/><path class="cls-1" d="M182.95,490.64V409.89a61,61,0,0,0,0,80.76Z"/><path class="cls-1" d="M198.21,416.06a46.88,46.88,0,0,1,15.26-10.12v-14.8a60.64,60.64,0,0,0-15.26,6.24Z"/><path class="cls-1" d="M198.21,503.14a60.64,60.64,0,0,0,15.26,6.24V492.72a46.88,46.88,0,0,1-15.26-10.12Z"/><path class="cls-1" d="M244,404.23V391.14a61.11,61.11,0,0,0-15.26-1.92v13.31q1.23-.06,2.48-.06A46.92,46.92,0,0,1,244,404.23Z"/><path class="cls-1" d="M228.73,496.13v15.18A61.11,61.11,0,0,0,244,509.39v-15a46.92,46.92,0,0,1-12.78,1.76Q230,496.2,228.73,496.13Z"/><path class="cls-1" d="M259.25,397.39v14.39a47,47,0,0,1,15.26,19.6V409.88A61.29,61.29,0,0,0,259.25,397.39Z"/><path class="cls-1" d="M228.67,449.08v15.26h30.59v38.79a61.29,61.29,0,0,0,15.26-12.5V449.08H228.67Z"/><path class="cls-2" d="M505.66,462c-13.89,5-41.31,13.18-73.72,13.18-36.32,0-66.24-9.26-89.74-31.7-20.66-19.94-33.48-52-33.48-89.39.36-71.58,49.5-123.93,130-123.93,27.78,0,49.5,6.05,59.83,11l-7.48,25.29c-12.82-5.7-28.85-10.33-53.06-10.33-58.41,0-96.51,36.33-96.51,96.51,0,60.9,36.68,96.87,92.59,96.87,20.3,0,34.19-2.85,41.31-6.41V371.54H426.6V346.61h79.06Z"/><rect class="cls-3" x="195.98" y="363.15" width="344.49" height="19.39" transform="matrix(0.6, 0.8, -0.8, 0.6, 446.04, -145.37)"/><rect class="cls-4" x="217.54" y="385.36" width="286.31" height="19.39" transform="matrix(0.6, 0.8, -0.8, 0.6, 460.8, -130.44)"/><rect class="cls-1" x="101.2" y="372.66" width="451.55" height="19.39" transform="translate(437.13 -108.54) rotate(53.18)"/><rect class="cls-2" x="146.69" y="369.18" width="307.38" height="19.39" transform="translate(423.68 -88.64) rotate(53.18)"/><path class="cls-2" d="M532.88,347.28c1.82,0,3.84.91,3.84,2.34v6.12a1.09,1.09,0,0,1-1.17,1.17,2.22,2.22,0,0,1-1.24-.46,5.57,5.57,0,0,0-3.45-1.17,9.53,9.53,0,0,0-5.86,2.28v19.86a1.2,1.2,0,0,1-1.24,1.24h-5.6a1.2,1.2,0,0,1-1.24-1.24V348.64a1.2,1.2,0,0,1,1.24-1.24h3.19a3.35,3.35,0,0,1,3.58,3.25v.46A11.19,11.19,0,0,1,532.88,347.28Z"/><path class="cls-2" d="M550.72,379c-5.4,0-10.09-2.54-10.09-9.64,0-5.79,4.3-10.09,12.57-10.09a31.17,31.17,0,0,1,5.79.59v-.59c0-4.3-.33-6.32-4.62-6.32a20.7,20.7,0,0,0-8.66,2,5.69,5.69,0,0,1-2,.59c-.72,0-1.11-.46-1.11-1.37v-2.86c0-1.17.59-1.89,2.08-2.6,2.54-1.24,7.36-2,11-2,8.72,0,11.2,3.78,11.2,10.94v15c0,1.5.46,2.08,1.43,2.08v.78c0,1.63-.91,3.52-4.69,3.52-2.6,0-4.17-1-4.62-3.19C557.49,377.49,555.14,379,550.72,379ZM559,364.14a17.73,17.73,0,0,0-4.1-.52c-4.43,0-6.38,1.89-6.38,5.34,0,3.78,2.08,4.88,5.08,4.88a7.5,7.5,0,0,0,5.4-2.34Z"/><path class="cls-2" d="M592.38,347c7.68,0,12.83,5.53,12.83,16.08s-5.14,16.08-12.83,16.08c-4.56,0-7.23-2.08-8.53-3.84v16.21a1.2,1.2,0,0,1-1.24,1.24H577a1.2,1.2,0,0,1-1.24-1.24V348.64a1.2,1.2,0,0,1,1.24-1.24h3.19a3.32,3.32,0,0,1,3.58,3.32C585.22,348.84,587.83,347,592.38,347Zm-1.89,6.64a8,8,0,0,0-6.64,3.58v11.72a8,8,0,0,0,6.64,3.58c4.1,0,6.64-2.54,6.64-9.44S594.6,353.59,590.5,353.59Z"/><path class="cls-2" d="M638.8,378.66h-5.6a1.2,1.2,0,0,1-1.24-1.24V358.47c0-3-1.56-4.17-4-4.17a18,18,0,0,0-6.9,1.56v21.55a1.2,1.2,0,0,1-1.24,1.24h-5.6a1.2,1.2,0,0,1-1.24-1.24V333.28a1.2,1.2,0,0,1,1.24-1.24h5.6a1.2,1.2,0,0,1,1.24,1.24v18a13,13,0,0,1,9.83-4.23c6.25,0,9.18,3.52,9.18,10.22v20.18A1.2,1.2,0,0,1,638.8,378.66Z"/><path class="cls-2" d="M649,338.42a4.17,4.17,0,1,1,4.17,4.17A4.2,4.2,0,0,1,649,338.42Zm7,40.24h-5.6a1.2,1.2,0,0,1-1.24-1.24V348.64a1.2,1.2,0,0,1,1.24-1.24H656a1.2,1.2,0,0,1,1.24,1.24v28.78A1.2,1.2,0,0,1,656,378.66Z"/><path class="cls-2" d="M688.87,377.16a17.44,17.44,0,0,1-8.79,2.15c-9.51,0-15.11-6.06-15.11-16.28s5.6-16.28,15.11-16.28a16.77,16.77,0,0,1,8.79,2.15c1.24.85,1.63,1.5,1.63,2.54v2.87c0,1-.33,1.56-1.11,1.56a3.41,3.41,0,0,1-1.5-.52,15.38,15.38,0,0,0-6.84-1.76c-4.75,0-8,2.8-8,9.44s3.26,9.44,8,9.44a15.38,15.38,0,0,0,6.84-1.76,3.42,3.42,0,0,1,1.5-.52c.78,0,1.11.59,1.11,1.56v2.86A2.76,2.76,0,0,1,688.87,377.16Z"/><path class="cls-2" d="M707.55,379.31a18.27,18.27,0,0,1-9.44-2.34,2.62,2.62,0,0,1-1.63-2.47v-3.26c0-1,.39-1.43,1.11-1.43a2.8,2.8,0,0,1,1.43.46c1.56.85,4.36,2.47,7.55,2.47,2.28,0,4.56-.52,4.56-3.19,0-2.34-1.5-3.32-4.75-4-4.82-1-9.44-3.12-9.44-9.18,0-6.32,5.21-9.64,10.87-9.64a16.54,16.54,0,0,1,8.59,2.15c1.24.78,1.69,1.43,1.69,2.47v3.13c0,1-.39,1.43-1.17,1.43a2.44,2.44,0,0,1-1.37-.46c-1.5-.91-3.26-2.47-6.77-2.47-2.28,0-4,.72-4,3.06,0,1.89,1.5,2.93,4.36,3.52,5.73,1.17,10,3.32,10,9.64C719.08,376.05,713.61,379.31,707.55,379.31Z"/></g></g></svg>