<svg xmlns="http://www.w3.org/2000/svg" xmlns:xlink="http://www.w3.org/1999/xlink" viewBox="0 0 212.5 160.02"><defs><style>.cls-1{fill:none;}.cls-2{clip-path:url(#clip-path);}.cls-3{clip-path:url(#clip-path-2);}.cls-4{fill:#c86e29;}</style><clipPath id="clip-path" transform="translate(0)"><rect class="cls-1" width="212.5" height="160.02"/></clipPath><clipPath id="clip-path-2" transform="translate(0)"><rect class="cls-1" width="212.5" height="160.02"/></clipPath></defs><title>graphic</title><g id="Layer_2" data-name="Layer 2"><g id="Layer_1-2" data-name="Layer 1"><g id="Artwork_14" data-name="Artwork 14"><g class="cls-2"><g class="cls-3"><path class="cls-4" d="M122.31,90.86a7.11,7.11,0,0,1-9.16-.74c-3.43-3.34-6.56-6.71-9.55-9.94C93.07,68.83,84.77,59.83,70.79,59.75A32,32,0,0,0,38.72,86a32.54,32.54,0,0,0,31.9,38.74,27.48,27.48,0,0,0,6.14-.43q5.66,5.81,11.68,11.24l1.77,1.6s-13.6,1.53-19.59,1.53a46.43,46.43,0,0,1,0-92.86c20.18,0,31.9,12.65,43.19,24.89,2.93,3.17,6,6.45,9.17,9.55a7,7,0,0,1-.67,10.61" transform="translate(0)"/><path class="cls-4" d="M130.23,24.58a56.72,56.72,0,0,0-36.94,13.7,4,4,0,0,1,1.39.31,64.11,64.11,0,0,1,11.82,7.15,42.9,42.9,0,1,1,23.73,78.63c-19.52,0-29.92-11-45.65-27.58C81,92.95,77.2,89,73,84.87a7,7,0,0,0-9.81,9.91c4,4,7.68,7.84,11.24,11.6,16.23,17.13,30.25,31.93,55.77,31.93a56.86,56.86,0,0,0,0-113.72" transform="translate(0)"/><path class="cls-4" d="M68.54,160a68.54,68.54,0,1,1,0-137.08,64.07,64.07,0,0,1,7.72.48,79.82,79.82,0,1,1,56.38,136.29c-6.07,0-19.57.08-32.87.16-12.94.07-25.68.15-31.24.15m0-123.14a54.6,54.6,0,0,0,0,109.2c5.54,0,18.26-.08,31.16-.15,13.33-.08,26.86-.16,32.95-.16A65.91,65.91,0,1,0,84,35.53l-2.56,2.81-3.75-.63a54.61,54.61,0,0,0-9.12-.83" transform="translate(0)"/></g></g></g></g></g></svg>