<svg xmlns="http://www.w3.org/2000/svg" viewBox="0 0 36 36"><defs><style>.cls-1{fill:#fff;}</style></defs><title>hammenu3</title><g id="Layer_2" data-name="Layer 2"><g id="Layer_1-2" data-name="Layer 1"><path class="cls-1" d="M18,0A18,18,0,1,0,36,18,18,18,0,0,0,18,0Zm0,32.53A14.53,14.53,0,1,1,32.53,18,14.53,14.53,0,0,1,18,32.53Z"/><path class="cls-1" d="M26.61,14.09H9.39a1.57,1.57,0,1,1,0-3.13H26.61a1.57,1.57,0,0,1,0,3.13Z"/><path class="cls-1" d="M26.61,19.57H9.39a1.57,1.57,0,1,1,0-3.13H26.61a1.57,1.57,0,0,1,0,3.13Z"/><path class="cls-1" d="M26.61,25H9.39a1.57,1.57,0,1,1,0-3.13H26.61a1.57,1.57,0,0,1,0,3.13Z"/></g></g></svg>